<svg width="202" height="60" viewBox="0 0 202 60" fill="none" xmlns="http://www.w3.org/2000/svg">
<path d="M7.54953 3.152C9.44553 3.152 10.7655 4.136 10.7655 5.648C10.7655 7.184 9.44553 8.168 7.54953 8.168C5.67753 8.168 4.33353 7.184 4.33353 5.648C4.33353 4.136 5.67753 3.152 7.54953 3.152ZM7.54953 10.208C10.7895 10.208 13.1415 8.336 13.1415 5.648C13.1415 2.984 10.7895 1.112 7.54953 1.112C4.30953 1.112 1.95753 2.984 1.95753 5.648C1.95753 8.336 4.30953 10.208 7.54953 10.208ZM14.5335 11.024C9.85353 11.72 4.40553 11.792 0.493531 11.792L0.781531 13.832C2.46153 13.832 4.38153 13.808 6.42153 13.736V21.2H8.89353V13.592C10.8135 13.448 12.8055 13.232 14.7015 12.848L14.5335 11.024ZM15.9495 0.175999V21.872H18.4215V0.175999H15.9495ZM30.2557 5.816H34.9597V3.824H30.2557V0.607999H27.7837V3.824H22.9837V5.816H27.7837V7.064C27.7837 10.64 25.7197 14.312 22.3117 15.848L23.6797 17.744C26.1997 16.592 28.0957 14.24 29.0557 11.36C30.0397 14.072 31.9357 16.304 34.4077 17.384L35.7277 15.464C32.3677 14 30.2557 10.472 30.2557 7.064V5.816ZM37.4317 0.151999V21.824H39.9277V0.151999H37.4317ZM49.7644 2.456V4.472H57.4924C57.0604 9.464 54.3724 13.28 48.6844 16.016L50.0044 17.984C57.4444 14.384 60.0364 8.912 60.0364 2.456H49.7644ZM63.9484 0.175999V21.848H66.4204V0.175999H63.9484ZM78.6385 10.616H73.3345V7.04H78.6385V10.616ZM81.0865 1.736H78.6385V5.12H73.3345V1.736H70.8625V12.608H81.0865V1.736ZM75.8065 14.576H73.3105V21.44H87.9025V19.424H75.8065V14.576ZM87.0385 6.56V0.199999H84.5665V16.112H87.0385V8.6H90.1105V6.56H87.0385Z" fill="#49DC92"/>
<path d="M101.465 1.592C97.0007 1.592 93.6407 3.968 93.6407 7.544C93.6407 11.144 97.0007 13.496 101.465 13.496C105.929 13.496 109.289 11.144 109.289 7.544C109.289 3.968 105.929 1.592 101.465 1.592ZM101.465 3.2C104.873 3.2 107.417 4.952 107.417 7.544C107.417 10.16 104.873 11.888 101.465 11.888C98.0807 11.888 95.5127 10.16 95.5127 7.544C95.5127 4.952 98.0807 3.2 101.465 3.2ZM91.7207 17.288V18.92H111.281V17.288H91.7207ZM124.051 17.504V13.448H130.939V11.864H117.691V8.384H130.435V1.832H115.699V3.44H128.515V6.8H115.747V13.448H122.059V17.504H113.299V19.112H132.859V17.504H124.051ZM144.496 14.96H141.856V9.368H144.496V14.96ZM144.496 7.784H141.856V2.264H140.176V16.568H146.128V2.264H144.496V7.784ZM151.48 14.96H148.936V9.368H151.48V14.96ZM151.48 7.784H148.936V2.264H147.28V16.568H153.136V2.264H151.48V7.784ZM159.784 8.648H156.904V0.248H154.96V21.776H156.904V10.304H159.784V8.648ZM176.538 6.824H163.77V13.52H178.962V11.912H165.714V8.408H178.458V1.904H163.722V3.488H176.538V6.824ZM161.322 17.432V19.064H180.882V17.432H161.322ZM194.852 9.056H191.132C191.852 7.136 192.164 5.096 192.164 2.984H183.86V4.592H190.22C189.86 9.104 187.556 12.968 182.948 15.728L184.1 17.144C187.076 15.368 189.14 13.136 190.436 10.64H194.852V20.696H196.724V0.823999H194.852V9.056ZM199.34 0.248V21.776H201.212V0.248H199.34ZM24.0514 48.712C27.3874 48.136 30.5554 46.336 31.8754 43.792C33.1714 46.336 36.3634 48.136 39.6994 48.712L40.4674 47.152C36.6754 46.6 32.9554 44.128 32.9554 41.296V41.176H39.6994V39.592H23.9794V41.176H30.7714V41.296C30.7714 44.128 27.0514 46.6 23.3074 47.152L24.0514 48.712ZM41.5954 50.512H22.1554V52.12H30.8434V59.776H32.8114V52.12H41.6194L41.5954 50.512ZM50.7655 40.888C52.8535 40.888 54.3415 42.016 54.3415 43.696C54.3415 45.376 52.8535 46.504 50.7655 46.504C48.6535 46.504 47.1655 45.376 47.1655 43.696C47.1655 42.016 48.6535 40.888 50.7655 40.888ZM50.7655 48.112C53.9575 48.112 56.2375 46.312 56.2375 43.696C56.2375 41.056 53.9575 39.256 50.7655 39.256C47.5495 39.256 45.2695 41.056 45.2695 43.696C45.2695 46.312 47.5495 48.112 50.7655 48.112ZM57.8455 49.168C53.1175 49.888 47.6695 49.936 43.6615 49.936L43.9255 51.592C45.7015 51.592 47.7415 51.568 49.8775 51.472V59.104H51.8455V51.352C53.8855 51.232 55.9735 50.992 58.0135 50.632L57.8455 49.168ZM59.4055 38.272V59.8H61.3735V38.272H59.4055ZM87.8188 38.272H85.8508V54.16H87.8188V38.272ZM83.4028 49.624C80.2108 48.64 77.9548 46.096 77.9548 43.264V42.712H82.8268V41.128H77.9788V38.368H76.0108V41.128H71.1148V42.712H76.0108V43.264C76.0108 46.264 73.8268 48.976 70.6108 50.032L71.5708 51.568C74.1148 50.704 76.0828 48.832 77.0188 46.456C78.0028 48.664 79.9708 50.368 82.4668 51.16L83.4028 49.624ZM75.9388 57.688V52.696H73.9708V59.296H88.4668V57.688H75.9388ZM111.221 48.904H108.029C108.629 45.808 108.629 43.528 108.629 41.512V39.64H94.1809V41.224H106.709V41.512C106.709 43.528 106.709 45.808 106.037 48.904H91.7569V50.512H100.445V59.8H102.437V50.512H111.221V48.904ZM128.383 42.016H115.807V46.624H130.711V45.208H117.751V43.36H130.327V38.872H115.759V40.264H128.383V42.016ZM117.631 56.08H130.399V51.496H115.639V52.912H128.455V54.712H115.687V59.488H131.071V58.072H117.631V56.08ZM113.311 48.256V49.744H132.823V48.256H113.311ZM152.548 40.216H147.364V38.104H145.396V40.216H140.188V41.704H152.548V40.216ZM143.212 45.688C143.212 44.56 144.436 43.864 146.38 43.864C148.276 43.864 149.524 44.56 149.524 45.688C149.524 46.816 148.276 47.536 146.38 47.536C144.436 47.536 143.212 46.816 143.212 45.688ZM153.196 49.816C151.324 50.104 149.332 50.248 147.364 50.344V48.856C149.836 48.592 151.396 47.44 151.396 45.688C151.396 43.72 149.38 42.496 146.38 42.496C143.332 42.496 141.34 43.72 141.34 45.688C141.34 47.464 142.9 48.616 145.396 48.856V50.416C143.332 50.488 141.364 50.488 139.66 50.488L139.876 52.072C143.644 52.048 148.732 52.048 153.34 51.232L153.196 49.816ZM142.276 55.336H154.468V59.776H156.436V53.776H142.276V55.336ZM159.604 44.776H156.436V38.272H154.468V52.696H156.436V46.408H159.604V44.776ZM178.999 38.272H177.031V53.992H178.999V38.272ZM163.759 45.04C163.759 42.952 165.343 41.464 167.431 41.464C169.567 41.464 171.151 42.952 171.151 45.04C171.151 47.176 169.567 48.664 167.431 48.664C165.343 48.664 163.759 47.176 163.759 45.04ZM173.071 45.04C173.071 41.944 170.647 39.76 167.431 39.76C164.239 39.76 161.839 41.944 161.839 45.04C161.839 48.16 164.239 50.368 167.431 50.368C170.647 50.368 173.071 48.16 173.071 45.04ZM167.118 57.688V52.384H165.151V59.296H179.647V57.688H167.118Z" fill="#333333"/>
</svg>
