<svg width="203" height="60" viewBox="0 0 203 60" fill="none" xmlns="http://www.w3.org/2000/svg">
<path d="M11.9298 9.464C12.4578 6.656 12.4578 4.52 12.4578 3.056V1.808H1.56181V3.824H10.0338C10.0098 5.168 9.93781 6.872 9.50581 9.2L11.9298 9.464ZM13.7298 10.544C11.5938 10.88 9.26581 11.024 7.00981 11.12V6.752H4.56181V11.192C3.02581 11.24 1.53781 11.24 0.241813 11.24L0.505813 13.256C4.27381 13.256 9.38581 13.136 13.8978 12.344L13.7298 10.544ZM6.00181 15.008H3.50581V21.44H18.2418V19.424H6.00181V15.008ZM17.5458 7.04V0.175999H15.0498V16.448H17.5458V9.08H20.4258V7.04H17.5458ZM35.2359 9.68C31.8999 8.624 29.9559 5.96 29.9559 3.104V1.016H27.4359V3.104C27.4359 6.056 25.4919 8.912 22.0839 10.064L23.2839 12.008C25.8759 11.12 27.7479 9.272 28.7319 6.944C29.6919 9.128 31.5399 10.784 34.0359 11.6L35.2359 9.68ZM28.1559 15.584H37.4919V19.616H28.1559V15.584ZM25.7319 21.584H39.9159V13.616H25.7319V21.584ZM37.4439 0.199999V12.488H39.9159V0.199999H37.4439ZM51.2221 1.976H48.7501V5.528C48.7501 9.536 46.6381 13.64 43.2541 15.296L44.7661 17.288C47.2381 16.016 49.0621 13.496 49.9981 10.496C50.9341 13.328 52.6621 15.68 54.9901 16.88L56.5021 14.912C53.2381 13.304 51.2221 9.392 51.2221 5.528V1.976ZM63.7981 8.768H60.4141V0.175999H57.9421V21.848H60.4141V10.808H63.7981V8.768ZM66.2722 2.456V4.472H73.8562C73.3522 9.464 70.4962 13.28 65.1922 15.992L66.5602 17.888C73.6402 14.312 76.3282 8.744 76.3282 2.456H66.2722ZM85.2802 8.72H81.9922V0.151999H79.5202V21.824H81.9922V10.784H85.2802V8.72ZM92.6449 1.664V3.656H100.037C99.7489 6.584 97.0849 9.008 91.7089 10.064L92.6929 12.056C99.1489 10.688 102.797 7.256 102.797 1.664H92.6449ZM97.2049 17.912H108.461V16.136H97.2049V14.408H108.725V12.56H94.7329V21.584H109.181V19.736H97.2049V17.912ZM108.605 4.952V0.175999H106.133V11.648H108.605V6.992H111.677V4.952H108.605ZM123.055 2.84C126.223 2.84 128.215 3.728 128.215 5.24C128.215 6.776 126.223 7.664 123.055 7.664C119.863 7.664 117.871 6.776 117.871 5.24C117.871 3.728 119.863 2.84 123.055 2.84ZM123.055 9.656C127.735 9.656 130.783 8 130.783 5.24C130.783 2.504 127.735 0.847999 123.055 0.847999C118.375 0.847999 115.327 2.504 115.327 5.24C115.327 8 118.375 9.656 123.055 9.656ZM118.207 15.128H115.711V21.44H130.663V19.424H118.207V15.128ZM113.239 11.408V13.424H132.847V11.408H113.239ZM157.588 0.199999H155.116V16.136H157.588V0.199999ZM153.124 11.36C149.788 10.376 147.82 7.88 147.82 5.216V4.856H152.476V2.888H147.82V0.271999H145.348V2.888H140.644V4.856H145.348V5.216C145.348 8.048 143.404 10.688 140.044 11.744L141.244 13.688C143.812 12.848 145.66 11.12 146.62 8.912C147.604 10.952 149.452 12.536 151.972 13.304L153.124 11.36ZM145.924 19.424V14.672H143.428V21.44H158.212V19.424H145.924ZM180.918 10.76H177.894C178.446 7.688 178.446 5.432 178.446 3.392V1.496H163.662V3.488H176.022C176.022 5.48 176.022 7.736 175.398 10.76H161.31V12.8H169.782V21.848H172.278V12.8H180.918V10.76Z" fill="#49DC92"/>
<path d="M198.008 4.016H185.432V8.624H200.336V7.208H187.376V5.36H199.952V0.871999H185.384V2.264H198.008V4.016ZM187.256 18.08H200.024V13.496H185.264V14.912H198.08V16.712H185.312V21.488H200.696V20.072H187.256V18.08ZM182.936 10.256V11.744H202.448V10.256H182.936ZM45.5204 48.568C42.3524 47.656 40.2644 45.304 40.2644 42.712V42.352H45.0164V40.768H40.2644V38.152H38.2964V40.768H33.5204V42.352H38.2964V42.712C38.2964 45.544 36.1124 47.992 32.9204 48.952L33.8804 50.512C36.4004 49.696 38.3684 47.992 39.3044 45.76C40.2644 47.776 42.1364 49.36 44.5844 50.08L45.5204 48.568ZM49.9844 53.488V51.928H35.8964V53.488H41.8964C41.5844 55.744 38.5364 57.64 35.0804 58.168L35.7764 59.68C38.9444 59.152 41.7284 57.64 42.9284 55.48C44.1524 57.616 46.9604 59.176 50.0804 59.704L50.8244 58.192C47.3684 57.64 44.3204 55.696 43.9604 53.488H49.9844ZM49.6244 43.576V38.272H47.6564V50.752H49.6244V45.208H52.8164V43.576H49.6244ZM64.2186 40.096C67.7466 40.096 69.7626 40.912 69.7626 42.352C69.7626 43.792 67.7466 44.608 64.2186 44.608C60.6906 44.608 58.6746 43.792 58.6746 42.352C58.6746 40.912 60.6906 40.096 64.2186 40.096ZM64.2186 46.072C68.9466 46.072 71.7786 44.776 71.7786 42.352C71.7786 39.928 68.9466 38.608 64.2186 38.608C59.4906 38.608 56.6586 39.928 56.6586 42.352C56.6586 44.776 59.4906 46.072 64.2186 46.072ZM58.8186 55.816H71.4666V50.968H56.8266V52.456H69.5226V54.376H56.8986V59.536H72.1146V58H58.8186V55.816ZM54.4746 47.536V49.12H73.9626V47.536H54.4746ZM99.4719 46.456C95.5599 45.88 91.7199 43.216 91.7199 40.216V39.016H89.6559V40.216C89.6559 43.288 85.8639 45.88 81.9519 46.456L82.7439 48.04C86.1039 47.464 89.3439 45.616 90.6879 43C92.0799 45.592 95.3199 47.464 98.6559 48.04L99.4719 46.456ZM100.408 50.368H80.9679V52H89.6559V59.8H91.6239V52H100.432L100.408 50.368ZM125.053 38.272H123.085V50.56H125.053V38.272ZM113.485 41.152C115.621 41.152 117.205 42.568 117.205 44.536C117.205 46.528 115.621 47.92 113.485 47.92C111.349 47.92 109.813 46.528 109.813 44.536C109.813 42.568 111.349 41.152 113.485 41.152ZM113.485 49.552C116.749 49.552 119.125 47.512 119.125 44.536C119.125 41.56 116.749 39.52 113.485 39.52C110.245 39.52 107.893 41.56 107.893 44.536C107.893 47.512 110.245 49.552 113.485 49.552ZM122.653 51.496H120.733V52.648C120.733 54.328 119.701 56.488 117.637 57.76C115.645 56.584 114.661 54.544 114.661 52.648V51.496H112.765V52.648C112.765 54.712 111.157 57.04 108.445 58L109.429 59.488C111.445 58.72 112.909 57.232 113.677 55.504C114.325 57.304 115.621 58.864 117.685 59.68C119.677 58.816 120.997 57.184 121.669 55.432C122.389 57.232 123.877 58.72 125.989 59.488L126.973 58C124.237 57.088 122.653 54.88 122.653 52.648V51.496ZM134.727 53.176C132.663 53.176 131.223 50.92 131.223 47.416C131.223 43.936 132.663 41.68 134.727 41.68C136.767 41.68 138.207 43.936 138.207 47.416C138.207 50.92 136.767 53.176 134.727 53.176ZM144.735 38.248V46.456H140.055C139.743 42.424 137.631 39.904 134.727 39.904C131.583 39.904 129.351 42.832 129.351 47.416C129.351 52 131.583 54.928 134.727 54.928C137.727 54.928 139.863 52.288 140.055 48.064H144.735V59.824H146.703V38.248H144.735ZM157.289 50.32C158.177 50.536 159.209 50.656 160.265 50.656C161.345 50.656 162.377 50.536 163.289 50.32V55.384H157.289V50.32ZM160.265 41.152C163.721 41.152 166.217 42.736 166.217 45.136C166.217 47.536 163.721 49.12 160.265 49.12C156.809 49.12 154.337 47.536 154.337 45.136C154.337 42.736 156.809 41.152 160.265 41.152ZM165.257 55.384V49.552C167.033 48.616 168.089 47.08 168.089 45.136C168.089 41.776 164.849 39.616 160.265 39.616C155.705 39.616 152.441 41.776 152.441 45.136C152.441 47.08 153.521 48.64 155.321 49.576V55.384H150.521V57.016H170.081V55.384H165.257Z" fill="#333333"/>
</svg>
