<svg width="24" height="25" viewBox="0 0 24 25" fill="none" xmlns="http://www.w3.org/2000/svg">
<path d="M12.75 8.46667C12.75 8.05246 12.4142 7.71667 12 7.71667C11.5858 7.71667 11.25 8.05246 11.25 8.46667L12.75 8.46667ZM11.25 21.5C11.25 21.9142 11.5858 22.25 12 22.25C12.4142 22.25 12.75 21.9142 12.75 21.5H11.25ZM11.25 8.46667V21.5H12.75V8.46667L11.25 8.46667Z" fill="#AAAAAA"/>
<path d="M22.2005 7.88487C17.895 1.89697 14.2118 5.06349 12.4726 8.15394C12.1495 8.72794 12.1959 9.44139 12.5937 9.96632C15.7262 14.0994 19.6745 12.2478 21.9997 10.1292C22.6363 9.54924 22.7033 8.58405 22.2005 7.88487Z" stroke="#AAAAAA" stroke-width="1.5" stroke-linecap="round" stroke-linejoin="round"/>
<path d="M12 9.03321C14.75 7.89998 16.4 8.46662 17.5 9.03321" stroke="#AAAAAA" stroke-width="1.5" stroke-linecap="round" stroke-linejoin="round"/>
<path d="M1.79946 7.88487C6.10502 1.89697 9.7882 5.06349 11.5274 8.15394C11.8505 8.72794 11.8041 9.44139 11.4063 9.96632C8.2738 14.0994 4.32551 12.2478 2.00031 10.1292C1.36374 9.54924 1.29672 8.58405 1.79946 7.88487Z" stroke="#AAAAAA" stroke-width="1.5" stroke-linecap="round" stroke-linejoin="round"/>
<path d="M12 9.03321C9.25 7.89998 7.6 8.46662 6.5 9.03321" stroke="#AAAAAA" stroke-width="1.5" stroke-linecap="round" stroke-linejoin="round"/>
</svg>
