<svg width="156" height="21" viewBox="0 0 156 21" fill="none" xmlns="http://www.w3.org/2000/svg">
<path d="M6.48128 20.312C10.3453 20.312 12.6973 18.008 12.6973 15.176C12.6973 12.584 11.1853 11.288 9.09728 10.4L6.67328 9.368C5.23328 8.792 3.81728 8.216 3.81728 6.704C3.81728 5.288 4.99328 4.424 6.79328 4.424C8.35328 4.424 9.57728 5.024 10.6813 6.008L12.1453 4.232C10.8013 2.864 8.85728 2 6.79328 2C3.43328 2 0.985281 4.088 0.985281 6.872C0.985281 9.44 2.88128 10.784 4.58528 11.504L7.03328 12.56C8.66528 13.28 9.86528 13.784 9.86528 15.392C9.86528 16.88 8.66528 17.888 6.52928 17.888C4.82528 17.888 3.09728 17.072 1.82528 15.8L0.193281 17.72C1.80128 19.352 4.05728 20.312 6.48128 20.312ZM20.7988 20.312C22.5268 20.312 24.0388 19.736 25.2628 18.92L24.3028 17.168C23.3428 17.792 22.3348 18.152 21.1588 18.152C18.8788 18.152 17.2948 16.64 17.0788 14.12H25.6468C25.7188 13.808 25.7668 13.256 25.7668 12.728C25.7668 8.984 23.8948 6.464 20.3908 6.464C17.2948 6.464 14.3668 9.128 14.3668 13.424C14.3668 17.768 17.2228 20.312 20.7988 20.312ZM17.0548 12.224C17.3188 9.896 18.7828 8.624 20.4388 8.624C22.3588 8.624 23.3908 9.944 23.3908 12.224H17.0548ZM33.1141 20.312C36.9781 20.312 39.3301 18.008 39.3301 15.176C39.3301 12.584 37.8181 11.288 35.7301 10.4L33.3061 9.368C31.8661 8.792 30.4501 8.216 30.4501 6.704C30.4501 5.288 31.6261 4.424 33.4261 4.424C34.9861 4.424 36.2101 5.024 37.3141 6.008L38.7781 4.232C37.4341 2.864 35.4901 2 33.4261 2C30.0661 2 27.6181 4.088 27.6181 6.872C27.6181 9.44 29.5141 10.784 31.2181 11.504L33.6661 12.56C35.2981 13.28 36.4981 13.784 36.4981 15.392C36.4981 16.88 35.2981 17.888 33.1621 17.888C31.4581 17.888 29.7301 17.072 28.4581 15.8L26.8261 17.72C28.4341 19.352 30.6901 20.312 33.1141 20.312ZM44.8397 12.776L45.5597 10.4C46.1357 8.48 46.6877 6.536 47.1917 4.52H47.2877C47.8397 6.512 48.3677 8.48 48.9677 10.4L49.6637 12.776H44.8397ZM51.8237 20H54.7757L48.9197 2.336H45.7037L39.8477 20H42.6797L44.1917 14.96H50.3357L51.8237 20ZM63.2355 20.312C65.5155 20.312 67.3155 19.4 68.7315 17.768L67.2435 16.016C66.1875 17.168 64.9395 17.888 63.3315 17.888C60.2115 17.888 58.2435 15.32 58.2435 11.12C58.2435 6.968 60.3555 4.424 63.4035 4.424C64.8435 4.424 65.9475 5.072 66.8595 6.008L68.3715 4.232C67.2915 3.056 65.5635 2 63.3555 2C58.8915 2 55.3875 5.456 55.3875 11.216C55.3875 17 58.7955 20.312 63.2355 20.312ZM76.2538 20H79.0378V12.392H85.5658V10.064H79.0378V4.664H86.7178V2.336H76.2538V20ZM88.5685 20H91.3045V11.768C92.1445 9.68 93.4405 8.936 94.5205 8.936C95.0485 8.936 95.3845 9.008 95.8405 9.152L96.3445 6.752C95.9365 6.56 95.5045 6.464 94.8565 6.464C93.4405 6.464 92.0485 7.472 91.1125 9.176H91.0405L90.8245 6.8H88.5685V20ZM97.8888 20H100.625V6.8H97.8888V20ZM99.2568 4.328C100.265 4.328 101.033 3.656 101.033 2.696C101.033 1.712 100.265 1.064 99.2568 1.064C98.2488 1.064 97.5048 1.712 97.5048 2.696C97.5048 3.656 98.2488 4.328 99.2568 4.328ZM104.279 20H107.015V10.64C108.191 9.464 109.031 8.84 110.255 8.84C111.815 8.84 112.487 9.752 112.487 12.032V20H115.247V11.696C115.247 8.336 113.999 6.464 111.191 6.464C109.391 6.464 108.047 7.448 106.823 8.624H106.751L106.535 6.8H104.279V20ZM124.252 20.312C125.98 20.312 127.492 19.736 128.716 18.92L127.756 17.168C126.796 17.792 125.788 18.152 124.612 18.152C122.332 18.152 120.748 16.64 120.532 14.12H129.1C129.172 13.808 129.22 13.256 129.22 12.728C129.22 8.984 127.348 6.464 123.844 6.464C120.748 6.464 117.82 9.128 117.82 13.424C117.82 17.768 120.676 20.312 124.252 20.312ZM120.508 12.224C120.772 9.896 122.236 8.624 123.892 8.624C125.812 8.624 126.844 9.944 126.844 12.224H120.508ZM136.386 20.312C137.874 20.312 139.242 19.52 140.226 18.512H140.298L140.538 20H142.794V0.871999H140.034V5.768L140.154 7.952C139.074 7.04 138.114 6.464 136.602 6.464C133.65 6.464 130.938 9.128 130.938 13.424C130.938 17.792 133.074 20.312 136.386 20.312ZM137.034 18.032C134.97 18.032 133.794 16.376 133.794 13.376C133.794 10.52 135.282 8.768 137.13 8.768C138.114 8.768 139.05 9.08 140.034 9.968V16.424C139.074 17.528 138.138 18.032 137.034 18.032ZM150.019 20.312C153.283 20.312 155.035 18.512 155.035 16.304C155.035 13.808 152.995 12.992 151.147 12.296C149.707 11.768 148.339 11.336 148.339 10.208C148.339 9.296 149.011 8.576 150.451 8.576C151.555 8.576 152.491 9.056 153.403 9.728L154.699 8.024C153.619 7.184 152.179 6.464 150.403 6.464C147.499 6.464 145.723 8.12 145.723 10.328C145.723 12.56 147.739 13.496 149.491 14.168C150.931 14.72 152.419 15.248 152.419 16.448C152.419 17.456 151.675 18.224 150.091 18.224C148.675 18.224 147.523 17.648 146.347 16.712L145.051 18.488C146.323 19.544 148.195 20.312 150.019 20.312Z" fill="#333333"/>
</svg>
