<svg width="24" height="25" viewBox="0 0 24 25" fill="none" xmlns="http://www.w3.org/2000/svg">
<path d="M19.6 12.5V22H4.39999V12.5" stroke="#AAAAAA" stroke-width="1.5" stroke-linecap="round" stroke-linejoin="round"/>
<path d="M21.5 7.75H2.5V12.5H21.5V7.75Z" stroke="#AAAAAA" stroke-width="1.5" stroke-linecap="round" stroke-linejoin="round"/>
<path d="M12 22V7.75" stroke="#AAAAAA" stroke-width="1.5" stroke-linecap="round" stroke-linejoin="round"/>
<path d="M12 7.75H16.275C16.9049 7.75 17.509 7.49978 17.9544 7.05438C18.3998 6.60898 18.65 6.00489 18.65 5.375C18.65 4.74511 18.3998 4.14102 17.9544 3.69562C17.509 3.25022 16.9049 3 16.275 3C12.95 3 12 7.75 12 7.75Z" stroke="#AAAAAA" stroke-width="1.5" stroke-linecap="round" stroke-linejoin="round"/>
<path d="M12 7.75H7.72501C7.09512 7.75 6.49103 7.49978 6.04563 7.05438C5.60023 6.60898 5.35001 6.00489 5.35001 5.375C5.35001 4.74511 5.60023 4.14102 6.04563 3.69562C6.49103 3.25022 7.09512 3 7.72501 3C11.05 3 12 7.75 12 7.75Z" stroke="#AAAAAA" stroke-width="1.5" stroke-linecap="round" stroke-linejoin="round"/>
</svg>
